# Blender v2.76 (sub 0) OBJ File: ''
# www.blender.org
o narrowarrow.001
v 1.000000 0.000000 0.000000
v 0.752965 -0.110914 0.000000
v 0.752965 -0.108782 -0.021638
v 0.752965 -0.102471 -0.042445
v 0.752965 -0.092221 -0.061620
v 0.752965 -0.078428 -0.078428
v 0.752965 -0.061620 -0.092221
v 0.752965 -0.042445 -0.102471
v 0.752965 -0.021638 -0.108782
v 0.752965 0.000000 -0.110914
v 0.752965 0.021638 -0.108782
v 0.752965 0.042445 -0.102471
v 0.752965 0.061620 -0.092221
v 0.752965 0.078428 -0.078428
v 0.752965 0.092221 -0.061620
v 0.752965 0.102471 -0.042445
v 0.752965 0.108782 -0.021638
v 0.752965 0.110914 0.000000
v 0.752965 0.108782 0.021638
v 0.752965 0.102471 0.042445
v 0.752965 0.092221 0.061620
v 0.752965 0.078428 0.078428
v 0.752965 0.061620 0.092221
v 0.752965 0.042444 0.102471
v 0.752965 0.021638 0.108782
v 0.752965 0.000000 0.110914
v 0.752965 -0.021638 0.108782
v 0.752965 -0.042445 0.102471
v 0.752965 -0.061620 0.092221
v 0.752965 -0.078428 0.078428
v 0.752965 -0.092221 0.061620
v 0.752965 -0.102471 0.042445
v 0.752965 -0.108782 0.021638
v 0.752965 0.024570 0.059316
v 0.752965 0.035669 -0.053383
v 0.752965 -0.064203 0.000000
v 0.752965 0.035669 0.053383
v 0.752965 0.024570 -0.059316
v 0.752965 -0.062970 0.012526
v 0.752965 0.045399 0.045399
v 0.752965 0.012526 -0.062970
v 0.752965 -0.059316 0.024570
v 0.752965 0.053383 0.035669
v 0.752965 0.000000 -0.064203
v 0.752965 -0.053383 0.035669
v 0.752965 0.059316 0.024570
v 0.752965 -0.012526 -0.062970
v 0.752965 -0.045399 0.045399
v 0.752965 0.062970 0.012526
v 0.752965 -0.062970 -0.012526
v 0.752965 -0.024570 -0.059316
v 0.752965 -0.035670 0.053383
v 0.752965 -0.035669 -0.053383
v 0.752965 0.064203 0.000000
v 0.752965 -0.024570 0.059316
v 0.752965 -0.045399 -0.045399
v 0.752965 0.062970 -0.012526
v 0.752965 -0.012526 0.062970
v 0.752965 -0.053383 -0.035669
v 0.752965 0.059316 -0.024570
v 0.752965 0.000000 0.064203
v 0.752965 -0.059316 -0.024570
v 0.752965 0.053383 -0.035669
v 0.752965 0.012526 0.062970
v 0.752965 0.045399 -0.045399
v -0.000000 0.053383 0.035669
v -0.000000 0.059316 0.024570
v -0.000000 0.045399 0.045399
v 0.000000 0.062970 -0.012526
v 0.000000 0.064203 -0.000000
v 0.000000 -0.045399 -0.045399
v 0.000000 -0.035669 -0.053383
v -0.000000 -0.024570 0.059316
v -0.000000 -0.035670 0.053383
v 0.000000 -0.024570 -0.059316
v 0.000000 -0.012526 -0.062970
v -0.000000 0.062970 0.012526
v -0.000000 -0.045399 0.045399
v -0.000000 -0.053383 0.035669
v 0.000000 0.000000 -0.064203
v 0.000000 0.012526 -0.062970
v -0.000000 -0.059316 0.024570
v -0.000000 -0.062970 0.012526
v 0.000000 -0.064203 -0.000000
v 0.000000 0.024570 -0.059316
v 0.000000 0.035669 -0.053383
v -0.000000 0.035669 0.053383
v -0.000000 0.024570 0.059316
v 0.000000 0.045399 -0.045399
v 0.000000 0.053383 -0.035669
v 0.000000 0.059316 -0.024570
v 0.000000 -0.062970 -0.012526
v 0.000000 -0.059316 -0.024570
v 0.000000 -0.053383 -0.035669
v -0.000000 0.012526 0.062970
v -0.000000 0.000000 0.064203
v -0.000000 -0.012526 0.062970
vt 0.000000 0.000000
vt 1.000000 0.000000
vt 1.000000 1.000000
vt 0.000000 1.000000
vt 0.500000 1.000000
vt 0.597545 0.990393
vt 0.402456 0.990393
vt 0.691342 0.961940
vt 0.777785 0.915735
vt 0.853553 0.853553
vt 0.915735 0.777785
vt 0.961940 0.691342
vt 0.990393 0.597545
vt 1.000000 0.500000
vt 0.990393 0.402455
vt 0.961940 0.308658
vt 0.915735 0.222215
vt 0.853553 0.146447
vt 0.777785 0.084265
vt 0.691342 0.038060
vt 0.597545 0.009607
vt 0.308659 0.961940
vt 0.222215 0.915735
vt 0.146447 0.853554
vt 0.308658 0.038060
vt 0.500000 0.000000
vt 0.402455 0.009607
vt 0.222215 0.084265
vt 0.146446 0.146447
vt 0.084265 0.222215
vt 0.009607 0.402455
vt 0.038060 0.308659
vt 0.009607 0.597546
vt 0.000000 0.500000
vt 0.038060 0.691342
vt 0.084266 0.777786
vn 0.407900 -0.908600 -0.089500
vn 0.407900 -0.873700 -0.265000
vn 0.407900 -0.805200 -0.430400
vn 0.407900 -0.705800 -0.579200
vn 0.407900 -0.579200 -0.705800
vn 0.407900 -0.430400 -0.805200
vn 0.407900 -0.265000 -0.873700
vn 0.407900 -0.089500 -0.908600
vn 0.407900 0.089500 -0.908600
vn 0.407900 0.265000 -0.873700
vn 0.407900 0.430400 -0.805200
vn 0.407900 0.579200 -0.705800
vn 0.407900 0.705800 -0.579200
vn 0.407900 0.805200 -0.430400
vn 0.407900 0.873700 -0.265000
vn 0.407900 0.908600 -0.089500
vn 0.407900 0.908600 0.089500
vn 0.407900 0.873700 0.265000
vn 0.407900 0.805200 0.430400
vn 0.407900 0.705800 0.579200
vn 0.407900 0.579200 0.705800
vn 0.407900 0.430400 0.805200
vn 0.407900 0.265000 0.873700
vn 0.407900 0.089500 0.908600
vn 0.407900 -0.089500 0.908600
vn 0.407900 -0.265000 0.873700
vn 0.407900 -0.430400 0.805200
vn 0.407900 -0.579200 0.705800
vn 0.407900 -0.705800 0.579200
vn 0.407900 -0.805200 0.430400
vn 0.407900 -0.873700 0.265000
vn 0.407900 -0.908600 0.089500
vn -1.000000 0.000000 0.000000
vn 0.000000 0.956900 -0.290300
vn 0.000000 0.995200 -0.098000
vn 0.000000 -0.773000 -0.634400
vn 0.000000 -0.634400 -0.773000
vn -0.000000 -0.290300 0.956900
vn -0.000000 -0.471400 0.881900
vn 0.000000 -0.471400 -0.881900
vn 0.000000 -0.290300 -0.956900
vn -0.000000 0.995200 0.098000
vn -0.000000 0.956900 0.290300
vn -0.000000 -0.634400 0.773000
vn -0.000000 -0.773000 0.634400
vn 0.000000 -0.098000 -0.995200
vn 0.000000 0.098000 -0.995200
vn -0.000000 0.881900 0.471400
vn -0.000000 0.773000 0.634400
vn -0.000000 -0.881900 0.471400
vn -0.000000 -0.956900 0.290300
vn -0.000000 -0.995200 0.098000
vn 0.000000 0.290300 -0.956900
vn 0.000000 0.471400 -0.881900
vn -0.000000 0.634400 0.773000
vn -0.000000 0.471400 0.881900
vn 0.000000 0.634400 -0.773000
vn 0.000000 0.773000 -0.634400
vn 0.000000 0.881900 -0.471400
vn 0.000000 -0.995200 -0.098000
vn 0.000000 -0.956900 -0.290300
vn 0.000000 -0.881900 -0.471400
vn -0.000000 0.290300 0.956900
vn -0.000000 0.098000 0.995200
vn -0.000000 -0.098000 0.995200
s 1
f 1/1/1 2/2/1 3/3/1
f 1/1/2 3/2/2 4/3/2
f 1/1/3 4/2/3 5/3/3
f 1/1/4 5/2/4 6/3/4
f 1/1/5 6/2/5 7/3/5
f 1/1/6 7/2/6 8/3/6
f 1/1/7 8/2/7 9/3/7
f 1/1/8 9/2/8 10/3/8
f 1/1/9 10/2/9 11/3/9
f 1/1/10 11/2/10 12/3/10
f 1/1/11 12/2/11 13/3/11
f 1/1/12 13/2/12 14/3/12
f 1/1/13 14/2/13 15/3/13
f 1/1/14 15/2/14 16/3/14
f 1/1/15 16/2/15 17/3/15
f 1/1/16 17/2/16 18/3/16
f 1/1/17 18/2/17 19/3/17
f 1/1/18 19/2/18 20/3/18
f 1/1/19 20/2/19 21/3/19
f 1/1/20 21/2/20 22/3/20
f 1/1/21 22/2/21 23/3/21
f 1/1/22 23/2/22 24/3/22
f 1/1/23 24/2/23 25/3/23
f 1/1/24 25/2/24 26/3/24
f 1/1/25 26/2/25 27/3/25
f 1/1/26 27/2/26 28/3/26
f 1/1/27 28/2/27 29/3/27
f 1/1/28 29/2/28 30/3/28
f 1/1/29 30/2/29 31/3/29
f 1/1/30 31/2/30 32/3/30
f 1/1/31 32/2/31 33/3/31
f 1/1/32 33/2/32 2/3/32
f 24/1/33 23/2/33 34/4/33
f 13/1/33 12/2/33 35/4/33
f 2/1/33 33/2/33 36/4/33
f 23/1/33 22/2/33 37/4/33
f 12/1/33 11/2/33 38/4/33
f 33/1/33 32/2/33 39/4/33
f 22/1/33 21/2/33 40/4/33
f 11/1/33 10/2/33 41/4/33
f 32/1/33 31/2/33 42/4/33
f 21/1/33 20/2/33 43/4/33
f 10/1/33 9/2/33 44/4/33
f 31/1/33 30/2/33 45/4/33
f 20/1/33 19/2/33 46/4/33
f 9/1/33 8/2/33 47/4/33
f 30/1/33 29/2/33 48/4/33
f 19/1/33 18/2/33 49/4/33
f 3/1/33 2/2/33 50/4/33
f 8/1/33 7/2/33 51/4/33
f 29/1/33 28/2/33 52/4/33
f 7/1/33 6/2/33 53/4/33
f 18/1/33 17/2/33 54/4/33
f 28/1/33 27/2/33 55/4/33
f 6/1/33 5/2/33 56/4/33
f 17/1/33 16/2/33 57/4/33
f 27/1/33 26/2/33 58/4/33
f 5/1/33 4/2/33 59/4/33
f 16/1/33 15/2/33 60/4/33
f 26/1/33 25/2/33 61/4/33
f 4/1/33 3/2/33 62/4/33
f 15/1/33 14/2/33 63/4/33
f 25/1/33 24/2/33 64/4/33
f 14/1/33 13/2/33 65/4/33
f 66/5/33 67/6/33 68/7/33
f 57/1/34 60/2/34 69/4/34
f 54/1/35 57/2/35 70/4/35
f 56/1/36 59/2/36 71/4/36
f 53/1/37 56/2/37 72/4/37
f 55/1/38 58/2/38 73/4/38
f 52/1/39 55/2/39 74/4/39
f 51/1/40 53/2/40 75/4/40
f 47/1/41 51/2/41 76/4/41
f 49/1/42 54/2/42 77/4/42
f 46/1/43 49/2/43 67/4/43
f 48/1/44 52/2/44 78/4/44
f 45/1/45 48/2/45 79/4/45
f 44/1/46 47/2/46 80/4/46
f 41/1/47 44/2/47 81/4/47
f 43/1/48 46/2/48 66/4/48
f 40/1/49 43/2/49 68/4/49
f 42/1/50 45/2/50 82/4/50
f 39/1/51 42/2/51 83/4/51
f 36/1/52 39/2/52 84/4/52
f 38/1/53 41/2/53 85/4/53
f 35/1/54 38/2/54 86/4/54
f 37/1/55 40/2/55 87/4/55
f 34/1/56 37/2/56 88/4/56
f 65/1/57 35/2/57 89/4/57
f 63/1/58 65/2/58 90/4/58
f 60/1/59 63/2/59 91/4/59
f 50/1/60 36/2/60 92/4/60
f 62/1/61 50/2/61 93/4/61
f 59/1/62 62/2/62 94/4/62
f 64/1/63 34/2/63 95/4/63
f 61/1/64 64/2/64 96/4/64
f 58/1/65 61/2/65 97/4/65
f 23/2/33 37/3/33 34/4/33
f 12/2/33 38/3/33 35/4/33
f 33/2/33 39/3/33 36/4/33
f 22/2/33 40/3/33 37/4/33
f 11/2/33 41/3/33 38/4/33
f 32/2/33 42/3/33 39/4/33
f 21/2/33 43/3/33 40/4/33
f 10/2/33 44/3/33 41/4/33
f 31/2/33 45/3/33 42/4/33
f 20/2/33 46/3/33 43/4/33
f 9/2/33 47/3/33 44/4/33
f 30/2/33 48/3/33 45/4/33
f 19/2/33 49/3/33 46/4/33
f 8/2/33 51/3/33 47/4/33
f 29/2/33 52/3/33 48/4/33
f 18/2/33 54/3/33 49/4/33
f 2/2/33 36/3/33 50/4/33
f 7/2/33 53/3/33 51/4/33
f 28/2/33 55/3/33 52/4/33
f 6/2/33 56/3/33 53/4/33
f 17/2/33 57/3/33 54/4/33
f 27/2/33 58/3/33 55/4/33
f 5/2/33 59/3/33 56/4/33
f 16/2/33 60/3/33 57/4/33
f 26/2/33 61/3/33 58/4/33
f 4/2/33 62/3/33 59/4/33
f 15/2/33 63/3/33 60/4/33
f 25/2/33 64/3/33 61/4/33
f 3/2/33 50/3/33 62/4/33
f 14/2/33 65/3/33 63/4/33
f 24/2/33 34/3/33 64/4/33
f 13/2/33 35/3/33 65/4/33
f 67/6/33 77/8/33 68/7/33
f 77/8/33 70/9/33 68/7/33
f 70/9/33 69/10/33 68/7/33
f 69/10/33 91/11/33 68/7/33
f 91/11/33 90/12/33 68/7/33
f 90/12/33 89/13/33 68/7/33
f 89/13/33 86/14/33 68/7/33
f 86/14/33 85/15/33 68/7/33
f 85/15/33 81/16/33 68/7/33
f 81/16/33 80/17/33 68/7/33
f 80/17/33 76/18/33 68/7/33
f 76/18/33 75/19/33 68/7/33
f 75/19/33 72/20/33 71/21/33
f 68/7/33 75/19/33 71/21/33
f 87/22/33 68/7/33 71/21/33
f 88/23/33 87/22/33 71/21/33
f 95/24/33 88/23/33 71/21/33
f 92/25/33 94/26/33 93/27/33
f 92/25/33 71/21/33 94/26/33
f 84/28/33 71/21/33 92/25/33
f 83/29/33 71/21/33 84/28/33
f 82/30/33 71/21/33 83/29/33
f 78/31/33 82/30/33 79/32/33
f 78/31/33 71/21/33 82/30/33
f 73/33/33 78/31/33 74/34/33
f 73/33/33 71/21/33 78/31/33
f 97/35/33 96/36/33 73/33/33
f 96/36/33 95/24/33 71/21/33
f 73/33/33 96/36/33 71/21/33
f 60/2/34 91/3/34 69/4/34
f 57/2/35 69/3/35 70/4/35
f 59/2/36 94/3/36 71/4/36
f 56/2/37 71/3/37 72/4/37
f 58/2/38 97/3/38 73/4/38
f 55/2/39 73/3/39 74/4/39
f 53/2/40 72/3/40 75/4/40
f 51/2/41 75/3/41 76/4/41
f 54/2/42 70/3/42 77/4/42
f 49/2/43 77/3/43 67/4/43
f 52/2/44 74/3/44 78/4/44
f 48/2/45 78/3/45 79/4/45
f 47/2/46 76/3/46 80/4/46
f 44/2/47 80/3/47 81/4/47
f 46/2/48 67/3/48 66/4/48
f 43/2/49 66/3/49 68/4/49
f 45/2/50 79/3/50 82/4/50
f 42/2/51 82/3/51 83/4/51
f 39/2/52 83/3/52 84/4/52
f 41/2/53 81/3/53 85/4/53
f 38/2/54 85/3/54 86/4/54
f 40/2/55 68/3/55 87/4/55
f 37/2/56 87/3/56 88/4/56
f 35/2/57 86/3/57 89/4/57
f 65/2/58 89/3/58 90/4/58
f 63/2/59 90/3/59 91/4/59
f 36/2/60 84/3/60 92/4/60
f 50/2/61 92/3/61 93/4/61
f 62/2/62 93/3/62 94/4/62
f 34/2/63 88/3/63 95/4/63
f 64/2/64 95/3/64 96/4/64
f 61/2/65 96/3/65 97/4/65
